<svg id="Capa_1" data-name="Capa 1" xmlns="http://www.w3.org/2000/svg" xmlns:xlink="http://www.w3.org/1999/xlink" viewBox="0 0 181.39 98.4"><defs><style>.cls-1{fill:#fff;}.cls-2{fill:url(#Degradado_sin_nombre_27);}</style><linearGradient id="Degradado_sin_nombre_27" x1="32.1" y1="25.16" x2="166.89" y2="25.16" gradientUnits="userSpaceOnUse"><stop offset="0" stop-color="#fff" stop-opacity="0"/><stop offset="1" stop-color="#fff"/></linearGradient></defs><g id="Layer_1" data-name="Layer 1"><g id="group"><g id="group-1"><g id="group-2"><path id="Path" class="cls-1" d="M128.56,64.45a81.72,81.72,0,0,1-9.12.91L118.61,68a37.15,37.15,0,0,1,5.7,0s.78-.09.87.89a16.22,16.22,0,0,1-.07,1.88s0,.59-.89.73-7.11.39-7.11.39l-1,3.4s-.37.78.47.55,7.28-1.43,8.14-1.25a2.31,2.31,0,0,1,1.62,2.54c-.35,1.36-6.83,5.51-10.79,5.22,0,0-2.08.14-3.84-2.67s.63-7.74.63-7.74-1-2.37-.28-3.16a3.19,3.19,0,0,1,1.75-.5l1.58-3.3a3.72,3.72,0,0,1-2.89-1.2c-1-1.27-1.08-1.85-.32-2.2a54.23,54.23,0,0,1,13.57-1.6s1.81-.18,3.36,3C129.09,62.88,129.85,64.16,128.56,64.45ZM109,77.11c-.66,1.57-2.43,3.24-4.6,2.2s-5.6-8.08-5.6-8.08-1.31-2.61-1.55-2.56c0,0-.28-.5-.46,2.35s0,8.43-1.09,9.3a2,2,0,0,1-3.07-.51c-.61-1-.87-3.42-.54-7.63s1.37-8.72,2.63-10.13a1.61,1.61,0,0,1,2.65,0,31.09,31.09,0,0,1,4.45,6l.48.82s2.51,4.22,2.78,4.2c0,0,.2.19.38,0s.16-1.43.16-1.43a83,83,0,0,0-2.81-12.36,3.6,3.6,0,0,1-.11-1.88c.23-.93,1.16-.49,1.16-.49s3.55,1.78,5.26,7.57A21.3,21.3,0,0,1,109,77.11ZM91.55,62.24a2.23,2.23,0,0,1-2,1.67s-14.35,1-15,2c0,0-.5.59.28.77s4,.59,5.6.68,7.32.07,9.34,2.59a5.57,5.57,0,0,1,1.15,3.93c0,2.79-.54,3.76-1.62,4.77s-10.86,5.3-17.14-1.39a3.55,3.55,0,0,1,1-5.67s2.8-1.69,9.93.3c0,0,2.17.78,2.06,1.57S83.37,75.17,81,75.12a7.94,7.94,0,0,1-3.72-1c.32.12-2.51-1.36-3.38-.35s-.66,1.5.19,2.08c2.18,1.23,10.6.8,13.11-2,0,0,1-1.13-.52-2.06s-5.86-1.39-7.55-1.48-7.65,0-8.52-1.59c0,0-.88-1.08.08-4.15s8-4.44,11.07-4.72c0,0,8.35-.3,9.89,1.41A1.34,1.34,0,0,1,91.55,62.24ZM67.84,81.05a3.25,3.25,0,0,1-3.77-.42c-.61-.75-.82-3.73-.69-8.4s.22-10.58,1.23-11.51,1.75-.12,2.17.52a4.9,4.9,0,0,1,1.11,2.81c.11,1.48.45,9.26.45,9.26S68.8,80.32,67.84,81.05ZM70,56a8.79,8.79,0,0,1-6.68-.09c-.75,1.31-1.18,1.71-1.76,1.8-.84.08-1.59-1.26-1.73-1.69a2.39,2.39,0,0,1-.05-2.22,5.1,5.1,0,0,1-1.52-4.88c.42-1.57,3.25-7.53,11.84-8.23,0,0,4.2-.31,4.92,1.94h.12s4.08,0,4,3.64S74.62,54.43,70,56Zm-8-8.07c-.87,1.39-.91,2.23-.51,2.8A20.78,20.78,0,0,1,67,45,6.19,6.19,0,0,0,62,47.91Zm11.87-2.34c-2.7.4-6.89,4-8.87,7,3,.56,8.44.35,10.82-4.51C75.81,48.05,77,45,73.87,45.57Zm73.36,28.09c-1.62,2.82-6.17,8.71-12.23,7.34a62.7,62.7,0,0,0-4.64,17.12s-.21,1.43-1.4.92a6.69,6.69,0,0,1-3.5-5.07c-.42-3.56,1.17-9.57,4.39-16.46a9.49,9.49,0,0,1-1-6.85s.82-5.79,6.63-11c0,0,.7-.61,1.1-.42s.24,2.08-.13,3-3,5.41-3,5.41-1.62,3-1.17,5.42c3.05-4.69,10-14.16,14.3-11.18,1.45,1,2.11,3.28,2.11,5.71A13.18,13.18,0,0,1,147.23,73.66ZM146,66.23s-.25-1.86-2.06.19a44.79,44.79,0,0,0-6.68,9.4,11,11,0,0,0,5.39-2.23C143.76,72.58,146.4,69.86,146,66.23ZM61.34,68.6c-.34,4.22-2,11.32-13.45,14.82a35.6,35.6,0,0,1-18.65.19c-.09,1.55-.26,2.22-.51,2.48s-2.8,1.76-4.16-.26a11.29,11.29,0,0,1-1.1-4.26c-8.79-4-12.83-9.87-13-10.13a3.52,3.52,0,0,1-.19-4.84c1.88-2.32,8-4.64,13.58-5.58.19-4.74.75-8.32,1.41-10,.8-1.9,1.82-.19,2.69,1.1.73,1,1.16,5.09,1.2,8.39a36.82,36.82,0,0,1,9.82.82c5.26,1,8.78,3.64,8.47,6.69a4.83,4.83,0,0,1-4,4.32,7.47,7.47,0,0,1-2.81-.69c-1.16-.56-.08-1,1.33-1.66s1.18-1.52,1.18-1.52c-.57-1.67-7.4-2.84-14.2-2.84,0,3.75.15,10,.24,13.6a38.65,38.65,0,0,0,8.32.73s17.36-.48,17.88-11.57S38.06,46.67,24.86,43.29s-20.64-1-21.28-.72-.06.46-.06.46a12,12,0,0,1,2,.52c1.3.42.29,1.1.29,1.1-2.25.71-4.77.26-5.26-.77s.33-2,1.27-3.28,2-1.34,2-1.34c16.3-5.65,36.16,4.57,36.16,4.57C58.51,53.26,61.68,64.31,61.34,68.6ZM12.14,68c-1.85.9-.58,2.21-.58,2.21a29.38,29.38,0,0,0,11.8,7.51c.47-6.43.41-8.7.46-11.94C17.47,66.25,13.81,67.26,12.14,68Z" transform="translate(-0.36 -0.75)"/></g></g><g id="group-3"><g id="group-4"><g id="group-5"><path id="Path-1" class="cls-1" d="M181.75,66.7V69a.9.9,0,0,1-.9.91h-11c0,.57,0,1.08,0,1.55a83.94,83.94,0,0,1-.47,9.29.91.91,0,0,1-.89.82h-2.37a.83.83,0,0,1-.63-.28.82.82,0,0,1-.21-.66,82.28,82.28,0,0,0,.49-9.17c0-.49,0-1,0-1.55H155a.9.9,0,0,1-.91-.91V66.7a.91.91,0,0,1,.91-.91h10.68a79.68,79.68,0,0,0-1.41-11,.82.82,0,0,1,.16-.63.72.72,0,0,1,.57-.28h2.57a.84.84,0,0,1,.82.68,89.84,89.84,0,0,1,1.39,11.24h11.11A.92.92,0,0,1,181.75,66.7Z" transform="translate(-0.36 -0.75)"/></g></g></g><g id="group-6"><g id="group-7"><path id="Path-3" class="cls-2" d="M166.83,48.45A76.52,76.52,0,0,0,32.26,34.85a.88.88,0,0,0,.45,1.34l2,.68a1.1,1.1,0,0,0,.35.05,1.16,1.16,0,0,0,.92-.48,72.42,72.42,0,0,1,60-31.77,72.56,72.56,0,0,1,66.79,44.27,1,1,0,0,0,.95.64h2.38a.81.81,0,0,0,.68-.37A.77.77,0,0,0,166.83,48.45Zm-3.64.82a.55.55,0,0,0,.15.08Z" transform="translate(-0.36 -0.75)"/></g></g></g></g></svg>