<svg id="Layer_1" data-name="Layer 1" xmlns="http://www.w3.org/2000/svg" viewBox="0 0 239.09 68.26"><defs><style>.cls-1{fill:#fff;}</style></defs><g id="g101"><path id="path935" class="cls-1" d="M211.2,32V15.32h11.61V32h17.38V43.13H222.81V59.77H211.2V43.13H193.78V32Z" transform="translate(-1.1 -0.68)"/><path id="path11" class="cls-1" d="M159.35,19.87h7.31c4.39,0,7.21,2.27,7.21,6.24,0,4.33-2.82,7.14-7.21,7.14h-7.31ZM171.93,42a15.88,15.88,0,0,0,13.81-15.74c0-10.74-7.31-16.62-19.08-16.62h-19v54h11.7V42l14.52,21.64h13.54Z" transform="translate(-1.1 -0.68)"/><polygon id="polygon13" class="cls-1" points="76.27 19.55 76.27 8.91 40.64 8.91 40.64 19.55 52.51 19.55 52.51 62.91 64.4 62.91 64.4 19.55 76.27 19.55"/><path id="path15" class="cls-1" d="M19.75,29.47c-3.52-1.59-4.85-3.34-4.85-5.63,0-2.65,2.2-4.84,5.72-4.75,3.08.07,5.46,1.75,7.14,5.72l10.12-4.49C35.07,13.11,29.34,8.9,20.12,8.9c-9.76,0-17,6.42-17,15,0,5.89,2.9,10.55,9.76,14l7.57,3.78c4.21,2.12,6.24,3.69,6.24,6.76,0,3.34-2.72,5.72-6.24,5.72-3.79,0-7.22-2.12-8.8-6.85L1.1,50.41C3.56,59.3,10.86,64.5,20.36,64.5c10.29,0,18.21-6.6,18.21-16.1,0-7.31-4-12.15-11.54-15.56Z" transform="translate(-1.1 -0.68)"/><path id="path3144-6" class="cls-1" d="M144.48,26.73H117.07l-8.48-26-8.47,26.05H72.71l22,16.13a76.56,76.56,0,0,1,23.78-9.74C99.26,47.3,88.82,61.37,88.82,61.37h0l-2.4,7.56,22.17-16.1,22.18,16.1-8.46-26.07Z" transform="translate(-1.1 -0.68)"/></g></svg>