<svg id="Layer_1" data-name="Layer 1" xmlns="http://www.w3.org/2000/svg" viewBox="0 0 1000 285.48"><defs><style>.cls-1{fill:#fff;}</style></defs><g id="g101"><path id="path935" class="cls-1" d="M883.38,134.27V64.49H932v69.78h72.67v46.52H932v69.6H883.38v-69.6H810.52V134.27Z" transform="translate(-4.63 -3.23)"/><path id="path11" class="cls-1" d="M666.54,83.51h30.55c18.39,0,30.16,9.51,30.16,26.11,0,18.08-11.77,29.85-30.16,29.85H666.54Zm52.6,92.35A66.43,66.43,0,0,0,776.89,110c0-44.89-30.55-69.52-79.8-69.52h-79.5V266.42h48.95V175.86l60.71,90.48h56.66Z" transform="translate(-4.63 -3.23)"/><polygon id="polygon13" class="cls-1" points="318.99 81.75 318.99 37.25 169.98 37.25 169.98 81.75 219.62 81.75 219.62 263.11 269.35 263.11 269.35 81.75 318.99 81.75"/><path id="path15" class="cls-1" d="M82.64,123.64c-14.73-6.62-20.26-14-20.26-23.53,0-11.07,9.19-20.27,23.92-19.88,12.86.32,22.84,7.33,29.85,23.93l42.32-18.78C146.7,55.22,122.78,37.6,84.2,37.6c-40.84,0-71,26.89-71,62.9C13.2,125.13,25.36,144.61,54,159l31.64,15.82c17.61,8.88,26.11,15.43,26.11,28.29,0,14-11.38,23.93-26.11,23.93-15.82,0-30.16-8.89-36.78-28.68L4.63,211.24c10.29,37.18,40.84,58.92,80.58,58.92,43,0,76.15-27.59,76.15-67.33,0-30.55-16.53-50.82-48.25-65.08Z" transform="translate(-4.63 -3.23)"/><path id="path3144-6" class="cls-1" d="M604.34,112.19H489.7l-35.46-109-35.46,109H304.13l92,67.49s45-29.62,99.44-40.76c-80.35,59.31-124,118.15-124,118.15h0L361.5,288.71l92.74-67.33L547,288.71l-35.38-109Z" transform="translate(-4.63 -3.23)"/></g></svg>